<?xml version="1.0" standalone="no"?>
<!DOCTYPE svg PUBLIC "-//W3C//DTD SVG 20010904//EN"
 "http://www.w3.org/TR/2001/REC-SVG-20010904/DTD/svg10.dtd">
<svg version="1.0" xmlns="http://www.w3.org/2000/svg"
 width="700.000000pt" height="700.000000pt" viewBox="0 0 700.000000 700.000000"
 preserveAspectRatio="xMidYMid meet">
<metadata>
Created by potrace 1.14, written by Peter Selinger 2001-2017
</metadata>
<g transform="translate(0.000000,700.000000) scale(0.100000,-0.100000)"
fill="#000000" stroke="none">
<path d="M3550 6399 c-970 -69 -1835 -566 -2333 -1340 -281 -438 -443 -910
-497 -1444 -15 -142 -15 -520 0 -655 79 -741 355 -1330 854 -1825 449 -445
959 -679 1676 -767 141 -17 642 -17 780 0 669 84 1148 315 1585 763 177 181
322 366 457 582 28 45 57 92 65 104 14 21 11 24 -49 62 -35 22 -67 41 -73 41
-5 0 -23 -19 -40 -42 -133 -189 -457 -541 -634 -690 -378 -319 -793 -459
-1361 -458 -361 0 -629 48 -925 167 -758 304 -1196 950 -1311 1938 -25 209
-25 720 0 965 56 564 183 993 404 1365 267 449 661 742 1171 869 480 120 1036
69 1455 -133 495 -240 829 -670 1073 -1378 l28 -83 68 0 c37 0 67 3 67 8 1 25
-132 1921 -136 1940 -4 22 -8 23 -80 20 l-76 -3 -22 -71 c-32 -99 -72 -169
-136 -234 -64 -66 -122 -90 -214 -90 -66 0 -100 13 -358 128 -470 211 -940
296 -1438 261z"/>
</g>
</svg>
